<?xml version="1.0" encoding="UTF-8" standalone="no"?>
<!DOCTYPE svg PUBLIC "-//W3C//DTD SVG 1.1//EN" "http://www.w3.org/Graphics/SVG/1.1/DTD/svg11.dtd">
<svg width="440" height="434" viewBox="0 0 4392 4327" version="1.1" xmlns="http://www.w3.org/2000/svg" xmlns:xlink="http://www.w3.org/1999/xlink" xml:space="preserve" xmlns:serif="http://www.serif.com/" style="fill-rule:evenodd;clip-rule:evenodd;stroke-linejoin:round;stroke-miterlimit:2;">
    <g transform="matrix(1,0,0,1,-995.24,-1207.11)">
        <path d="M1833.85,4578.37C1428.01,4614.67 1098.75,4169.54 1018.43,3799.69C967.689,3566.04 959.955,3202.21 1431.75,2658.01C1496.08,3220.01 2095.06,3738.22 2130.78,3650.06C2166.49,3561.9 1555.01,2764.78 1615.9,2434.76C1676.8,2104.75 2278.89,1727.71 2496.17,1670C2487.25,2310.35 2906.35,2936.57 2986.35,2916.78C3066.35,2896.98 2642.87,2100.52 2772.08,1614.48C2815.53,1451.01 3459.38,1351.44 3700.06,1310.79C3601.92,1453.12 3724.55,2272.55 3858.43,2245.93C3954.62,2226.8 3559.22,1585.72 4195.42,1358.48C4504.05,1248.24 4752.99,1502.12 5275.07,1207.11C4956.59,1676.39 5357.91,1875.81 5271.06,2269.54C5133.68,2892.25 4350.25,2564.52 4389.76,2669.28C4429.27,2774.05 5260.62,2864.96 5386.67,2801.8C5352.77,3012.2 5294.64,3655.12 5025.91,3779.99C4741.03,3912.35 3729.85,3531.69 3677.41,3596C3624.98,3660.31 4203.73,4029.2 5011.55,3992.95C4898.65,4264.82 4661.23,4745.39 4338.54,4809.5C4013.49,4874.08 3179.02,4370.42 3121.23,4408.14C3063.44,4445.85 3489.64,4892.04 4180.38,5005.9C3936.92,5305.65 3526.97,5533.95 3145.24,5533.95C2662.72,5533.95 2025.06,5148.21 2056.23,4764.99C1804.08,4928.19 1697.84,5034.54 1653.34,5323.36C1633.29,5462.86 1663.47,5478.09 1622.82,5475.81C1565.77,5472.62 1382.9,5479.23 1328.56,5470.23C1305.55,5466.42 1335.01,5388.18 1357.56,5278.7C1410.05,4938 1580.64,4778.18 1833.85,4578.37Z" style="fill:rgb(106,129,100);"/>
    </g>
</svg>
